<svg style="position: absolute; width: 0; height: 0; overflow: hidden;" version="1.1" xmlns="http://www.w3.org/2000/svg" xmlns:xlink="http://www.w3.org/1999/xlink">
<defs>
<!--
Feather free svg icons. [https://github.com/feathericons]
Cole Bemis - MIT
-->
<symbol id="icon-pp-menu" viewBox="0 0 32 32">
<path d="M4 17.333h24c0.736 0 1.333-0.597 1.333-1.333s-0.597-1.333-1.333-1.333h-24c-0.736 0-1.333 0.597-1.333 1.333s0.597 1.333 1.333 1.333zM4 9.333h24c0.736 0 1.333-0.597 1.333-1.333s-0.597-1.333-1.333-1.333h-24c-0.736 0-1.333 0.597-1.333 1.333s0.597 1.333 1.333 1.333zM4 25.333h24c0.736 0 1.333-0.597 1.333-1.333s-0.597-1.333-1.333-1.333h-24c-0.736 0-1.333 0.597-1.333 1.333s0.597 1.333 1.333 1.333z"></path>
</symbol>
<symbol id="icon-pp-search" viewBox="0 0 32 32">
<path d="M31.008 27.231l-7.58-6.447c-0.784-0.705-1.622-1.029-2.299-0.998 1.789-2.096 2.87-4.815 2.87-7.787 0-6.627-5.373-12-12-12s-12 5.373-12 12 5.373 12 12 12c2.972 0 5.691-1.081 7.787-2.87-0.031 0.677 0.293 1.515 0.998 2.299l6.447 7.58c1.104 1.226 2.907 1.33 4.007 0.23s0.997-2.903-0.23-4.007zM12 20c-4.418 0-8-3.582-8-8s3.582-8 8-8 8 3.582 8 8-3.582 8-8 8z"></path>
</symbol>
<symbol id="icon-pp-x" viewBox="0 0 32 32">
<path d="M31.708 25.708c-0-0-0-0-0-0l-9.708-9.708 9.708-9.708c0-0 0-0 0-0 0.105-0.105 0.18-0.227 0.229-0.357 0.133-0.356 0.057-0.771-0.229-1.057l-4.586-4.586c-0.286-0.286-0.702-0.361-1.057-0.229-0.13 0.048-0.252 0.124-0.357 0.228 0 0-0 0-0 0l-9.708 9.708-9.708-9.708c-0-0-0-0-0-0-0.105-0.104-0.227-0.18-0.357-0.228-0.356-0.133-0.771-0.057-1.057 0.229l-4.586 4.586c-0.286 0.286-0.361 0.702-0.229 1.057 0.049 0.13 0.124 0.252 0.229 0.357 0 0 0 0 0 0l9.708 9.708-9.708 9.708c-0 0-0 0-0 0-0.104 0.105-0.18 0.227-0.229 0.357-0.133 0.355-0.057 0.771 0.229 1.057l4.586 4.586c0.286 0.286 0.702 0.361 1.057 0.229 0.13-0.049 0.252-0.124 0.357-0.229 0-0 0-0 0-0l9.708-9.708 9.708 9.708c0 0 0 0 0 0 0.105 0.105 0.227 0.18 0.357 0.229 0.356 0.133 0.771 0.057 1.057-0.229l4.586-4.586c0.286-0.286 0.362-0.702 0.229-1.057-0.049-0.13-0.124-0.252-0.229-0.357z"></path>
</symbol>
<!--
Icomoon free svg icons. [https://icomoon.io]
Keyamoon - GPL / CC BY 4.0
-->
<symbol id="icon-pp-facebook" viewBox="0 0 32 32">
<path d="M29 0h-26c-1.65 0-3 1.35-3 3v26c0 1.65 1.35 3 3 3h13v-14h-4v-4h4v-2c0-3.306 2.694-6 6-6h4v4h-4c-1.1 0-2 0.9-2 2v2h6l-1 4h-5v14h9c1.65 0 3-1.35 3-3v-26c0-1.65-1.35-3-3-3z"></path>
</symbol>
<symbol id="icon-pp-linkedin" viewBox="0 0 32 32">
<path d="M29 0h-26c-1.65 0-3 1.35-3 3v26c0 1.65 1.35 3 3 3h26c1.65 0 3-1.35 3-3v-26c0-1.65-1.35-3-3-3zM12 26h-4v-14h4v14zM10 10c-1.106 0-2-0.894-2-2s0.894-2 2-2c1.106 0 2 0.894 2 2s-0.894 2-2 2zM26 26h-4v-8c0-1.106-0.894-2-2-2s-2 0.894-2 2v8h-4v-14h4v2.481c0.825-1.131 2.087-2.481 3.5-2.481 2.488 0 4.5 2.238 4.5 5v9z"></path>
</symbol>
<symbol id="icon-pp-mail" viewBox="0 0 32 32">
<path d="M26.667 0h-21.333c-2.934 0-5.334 2.4-5.334 5.334v21.332c0 2.936 2.4 5.334 5.334 5.334h21.333c2.934 0 5.333-2.398 5.333-5.334v-21.332c0-2.934-2.399-5.334-5.333-5.334zM26.667 4c0.25 0 0.486 0.073 0.688 0.198l-11.355 9.388-11.355-9.387c0.202-0.125 0.439-0.198 0.689-0.198h21.333zM5.334 28c-0.060 0-0.119-0.005-0.178-0.013l7.051-9.78-0.914-0.914-7.293 7.293v-19.098l12 14.512 12-14.512v19.098l-7.293-7.293-0.914 0.914 7.051 9.78c-0.058 0.008-0.117 0.013-0.177 0.013h-21.333z"></path>
</symbol>
<symbol id="icon-pp-twitter" viewBox="0 0 32 32">
<path d="M32 7.075c-1.175 0.525-2.444 0.875-3.769 1.031 1.356-0.813 2.394-2.1 2.887-3.631-1.269 0.75-2.675 1.3-4.169 1.594-1.2-1.275-2.906-2.069-4.794-2.069-3.625 0-6.563 2.938-6.563 6.563 0 0.512 0.056 1.012 0.169 1.494-5.456-0.275-10.294-2.888-13.531-6.862-0.563 0.969-0.887 2.1-0.887 3.3 0 2.275 1.156 4.287 2.919 5.463-1.075-0.031-2.087-0.331-2.975-0.819 0 0.025 0 0.056 0 0.081 0 3.181 2.263 5.838 5.269 6.437-0.55 0.15-1.131 0.231-1.731 0.231-0.425 0-0.831-0.044-1.237-0.119 0.838 2.606 3.263 4.506 6.131 4.563-2.25 1.762-5.075 2.813-8.156 2.813-0.531 0-1.050-0.031-1.569-0.094 2.913 1.869 6.362 2.95 10.069 2.95 12.075 0 18.681-10.006 18.681-18.681 0-0.287-0.006-0.569-0.019-0.85 1.281-0.919 2.394-2.075 3.275-3.394z"></path>
</symbol>
<symbol id="icon-pp-pause" viewBox="0 0 32 32">
<path d="M4 4h10v24h-10zM18 4h10v24h-10z"></path>
</symbol>
<symbol id="icon-pp-download" viewBox="0 0 32 32">
<path d="M16 18l8-8h-6v-8h-4v8h-6zM23.273 14.727l-2.242 2.242 8.128 3.031-13.158 4.907-13.158-4.907 8.127-3.031-2.242-2.242-8.727 3.273v8l16 6 16-6v-8z"></path>
</symbol>
<symbol id="icon-pp-refresh" viewBox="0 0 32 32">
<path d="M32 16c-0.040-2.089-0.493-4.172-1.331-6.077-0.834-1.906-2.046-3.633-3.533-5.060-1.486-1.428-3.248-2.557-5.156-3.302-1.906-0.748-3.956-1.105-5.981-1.061-2.025 0.040-4.042 0.48-5.885 1.292-1.845 0.809-3.517 1.983-4.898 3.424s-2.474 3.147-3.193 4.994c-0.722 1.846-1.067 3.829-1.023 5.79 0.040 1.961 0.468 3.911 1.254 5.694 0.784 1.784 1.921 3.401 3.316 4.736 1.394 1.336 3.046 2.391 4.832 3.085 1.785 0.697 3.701 1.028 5.598 0.985 1.897-0.040 3.78-0.455 5.502-1.216 1.723-0.759 3.285-1.859 4.574-3.208 1.29-1.348 2.308-2.945 2.977-4.67 0.407-1.046 0.684-2.137 0.829-3.244 0.039 0.002 0.078 0.004 0.118 0.004 1.105 0 2-0.895 2-2 0-0.056-0.003-0.112-0.007-0.167h0.007zM28.822 21.311c-0.733 1.663-1.796 3.169-3.099 4.412s-2.844 2.225-4.508 2.868c-1.663 0.646-3.447 0.952-5.215 0.909-1.769-0.041-3.519-0.429-5.119-1.14-1.602-0.708-3.053-1.734-4.25-2.991s-2.141-2.743-2.76-4.346c-0.621-1.603-0.913-3.319-0.871-5.024 0.041-1.705 0.417-3.388 1.102-4.928 0.683-1.541 1.672-2.937 2.883-4.088s2.642-2.058 4.184-2.652c1.542-0.596 3.192-0.875 4.832-0.833 1.641 0.041 3.257 0.404 4.736 1.064 1.48 0.658 2.82 1.609 3.926 2.774s1.975 2.54 2.543 4.021c0.57 1.481 0.837 3.064 0.794 4.641h0.007c-0.005 0.055-0.007 0.11-0.007 0.167 0 1.032 0.781 1.88 1.784 1.988-0.195 1.088-0.517 2.151-0.962 3.156z"></path>
</symbol>
<symbol id="icon-pp-text" viewBox="0 0 32 32">
<path d="M27 0h-24c-1.65 0-3 1.35-3 3v26c0 1.65 1.35 3 3 3h24c1.65 0 3-1.35 3-3v-26c0-1.65-1.35-3-3-3zM26 28h-22v-24h22v24zM8 14h14v2h-14zM8 18h14v2h-14zM8 22h14v2h-14zM8 10h14v2h-14z"></path>
</symbol>
<symbol id="icon-pp-show-list" viewBox="0 0 44 32">
<path d="M0 6h28v6h-28v-6zM0 14h28v6h-28v-6zM0 22h28v6h-28v-6z"></path>
<path d="M31 14l6 6 6-6z"></path>
</symbol>
<symbol id="icon-pp-hide-list" viewBox="0 0 44 32">
<path d="M0 6h28v6h-28v-6zM0 14h28v6h-28v-6zM0 22h28v6h-28v-6z"></path>
<path d="M31 20l6-6 6 6z"></path>
</symbol>
<symbol id="icon-pp-maximize" viewBox="0 0 32 32">
<path d="M32 0h-13l5 5-6 6 3 3 6-6 5 5z"></path>
<path d="M32 32v-13l-5 5-6-6-3 3 6 6-5 5z"></path>
<path d="M0 32h13l-5-5 6-6-3-3-6 6-5-5z"></path>
<path d="M0 0v13l5-5 6 6 3-3-6-6 5-5z"></path>
</symbol>
<symbol id="icon-pp-minimize" viewBox="0 0 32 32">
<path d="M18 14h13l-5-5 6-6-3-3-6 6-5-5z"></path>
<path d="M18 18v13l5-5 6 6 3-3-6-6 5-5z"></path>
<path d="M14 18h-13l5 5-6 6 3 3 6-6 5 5z"></path>
<path d="M14 14v-13l-5 5-6-6-3 3 6 6-5 5z"></path>
</symbol>
<symbol id="icon-pp-podcast" viewBox="0 0 32 32">
<path d="M32 16c0-8.837-7.163-16-16-16s-16 7.163-16 16c0 6.877 4.339 12.739 10.428 15.002l-0.428 0.998h12l-0.428-0.998c6.089-2.263 10.428-8.125 10.428-15.002zM15.212 19.838c-0.713-0.306-1.212-1.014-1.212-1.838 0-1.105 0.895-2 2-2s2 0.895 2 2c0 0.825-0.499 1.533-1.212 1.839l-0.788-1.839-0.788 1.838zM16.821 19.915c1.815-0.379 3.179-1.988 3.179-3.915 0-2.209-1.791-4-4-4s-4 1.791-4 4c0 1.928 1.364 3.535 3.18 3.913l-2.332 5.441c-2.851-1.223-4.848-4.056-4.848-7.355 0-4.418 3.582-8.375 8-8.375s8 3.957 8 8.375c0 3.299-1.997 6.131-4.848 7.355l-2.331-5.439zM21.514 30.866l-2.31-5.39c3.951-1.336 6.796-5.073 6.796-9.476 0-5.523-4.477-10-10-10s-10 4.477-10 10c0 4.402 2.845 8.14 6.796 9.476l-2.31 5.39c-4.987-2.14-8.481-7.095-8.481-12.866 0-7.729 6.266-14.37 13.995-14.37s13.995 6.641 13.995 14.37c0 5.771-3.494 10.726-8.481 12.866z"></path>
</symbol>
<!--
Entypo+ SVG Icons (Refer credits.txt for more info)
Daniel Bruce — CC BY-SA 4.0 [http://www.entypo.com/]
-->
<symbol id="icon-pp-drop-down" viewBox="0 0 32 32">
<path d="M7.226 12.077c0.698-0.714 1.669-0.77 2.522 0l6.253 5.995 6.253-5.995c0.853-0.77 1.826-0.714 2.518 0 0.698 0.712 0.653 1.915 0 2.584-0.65 0.669-7.512 7.203-7.512 7.203-0.347 0.357-0.803 0.536-1.259 0.536s-0.912-0.179-1.262-0.536c0 0-6.859-6.534-7.512-7.203-0.654-0.669-0.698-1.872 0-2.584z"></path>
</symbol>
<symbol id="icon-pp-dots" viewBox="0 0 32 32">
<path d="M16.002 12.48c-1.944 0-3.522 1.576-3.522 3.52s1.578 3.52 3.522 3.52c1.944 0 3.518-1.576 3.518-3.52s-1.574-3.52-3.518-3.52zM4.802 12.48c-1.944 0-3.522 1.576-3.522 3.52s1.578 3.52 3.522 3.52c1.944 0 3.518-1.578 3.518-3.52s-1.574-3.52-3.518-3.52zM27.202 12.48c-1.944 0-3.522 1.576-3.522 3.52s1.578 3.52 3.522 3.52c1.944 0 3.518-1.576 3.518-3.52s-1.574-3.52-3.518-3.52z"></path>
</symbol>
<!--
Font Awesomw svg icons. [https://github.com/FortAwesome/Font-Awesome]
Dave Gandy - CC BY 4.0
-->
<symbol id="icon-pp-circle" viewBox="0 0 32 32">
<path d="M16 0.64c-8.483 0-15.36 6.877-15.36 15.36s6.877 15.36 15.36 15.36c8.482 0 15.36-6.877 15.36-15.362 0-8.482-6.878-15.358-15.36-15.358zM16 28.158c-6.715 0-12.16-5.443-12.16-12.16s5.443-12.158 12.16-12.158c6.715 0 12.162 5.443 12.162 12.16s-5.446 12.158-12.162 12.158z"></path>
</symbol>
<symbol id="icon-pp-copy" viewBox="0 0 28 32">
<path d="M27.121 4.121l-3.243-3.243c-0.543-0.543-1.293-0.879-2.121-0.879h-10.757c-1.657 0-3 1.343-3 3v3h-5c-1.657 0-3 1.343-3 3v20c0 1.657 1.343 3 3 3h14c1.657 0 3-1.343 3-3v-3h5c1.657 0 3-1.343 3-3v-16.757c0-0.828-0.336-1.578-0.879-2.121v0zM16.625 29h-13.25c-0.207 0-0.375-0.168-0.375-0.375v0-19.25c0-0.207 0.168-0.375 0.375-0.375v0h4.625v14c0 1.657 1.343 3 3 3h6v2.625c0 0.207-0.168 0.375-0.375 0.375v0zM24.625 23h-13.25c-0.207 0-0.375-0.168-0.375-0.375v0-19.25c0-0.207 0.168-0.375 0.375-0.375v0h6.625v5.5c0 0.828 0.672 1.5 1.5 1.5h5.5v12.625c0 0.207-0.168 0.375-0.375 0.375v0zM25 7h-4v-4h0.602c0.099 0 0.195 0.039 0.265 0.11l3.023 3.023c0.068 0.068 0.11 0.162 0.11 0.265 0 0 0 0 0 0v0 0.602z"></path>
</symbol>
<!--
Material design svg icons. [https://github.com/google/material-design-icons]
Google - Apache-2.0
-->
<symbol id="icon-pp-tune" viewBox="0 0 32 32">
<path d="M20 12v-8h2.688v2.688h5.313v2.625h-5.313v2.688h-2.688zM28 17.313h-13.313v-2.625h13.313v2.625zM9.313 12h2.688v8h-2.688v-2.688h-5.313v-2.625h5.313v-2.688zM17.313 28h-2.625v-8h2.625v2.688h10.688v2.625h-10.688v2.688zM4 6.688h13.313v2.625h-13.313v-2.625zM4 22.688h8v2.625h-8v-2.625z"></path>
</symbol>
<!-- Podcast Subscription Icons -->
<symbol id="icon-pp-apple" viewBox="0 0 32 32">
<path fill="#832BC1" d="M7.119 0h17.762c3.932 0 7.119 3.187 7.119 7.119v17.762c0 3.932-3.187 7.119-7.119 7.119h-17.762c-3.932 0-7.119-3.187-7.119-7.119v-17.762c0-3.932 3.187-7.119 7.119-7.119z"></path>
<path fill="#fff" style="fill: var(--color2, #fff)" d="M15.023 28.015c-0.955-0.341-1.159-0.805-1.551-3.524-0.455-3.161-0.555-5.117-0.291-5.737 0.35-0.821 1.299-1.287 2.627-1.293 1.317-0.005 2.275 0.465 2.627 1.293 0.265 0.619 0.165 2.576-0.29 5.737-0.309 2.208-0.48 2.766-0.907 3.141-0.587 0.519-1.419 0.663-2.208 0.384zM10.945 24.772c-3.296-1.621-5.408-4.365-6.176-8.015-0.192-0.942-0.224-3.189-0.043-4.053 0.48-2.32 1.397-4.134 2.923-5.739 2.197-2.317 5.024-3.541 8.171-3.541 3.115 0 5.931 1.202 8.075 3.45 1.632 1.696 2.549 3.491 3.019 5.856 0.16 0.787 0.16 2.933 0.011 3.819-0.491 2.799-2.048 5.348-4.32 7.061-0.811 0.612-2.795 1.681-3.115 1.681-0.117 0-0.128-0.122-0.075-0.613 0.096-0.789 0.192-0.954 0.64-1.141 0.715-0.299 1.931-1.165 2.677-1.914 1.291-1.28 2.24-2.955 2.677-4.715 0.277-1.099 0.245-3.541-0.064-4.672-0.971-3.595-3.904-6.389-7.499-7.136-1.045-0.213-2.944-0.213-4 0-3.637 0.747-6.645 3.68-7.563 7.371-0.245 1.003-0.245 3.445 0 4.448 0.608 2.443 2.187 4.683 4.256 6.016 0.405 0.267 0.896 0.544 1.099 0.629 0.448 0.192 0.544 0.352 0.629 1.141 0.053 0.48 0.043 0.619-0.075 0.619-0.075 0-0.619-0.235-1.195-0.512zM10.988 20.433c-1.109-0.885-2.091-2.455-2.496-3.996-0.245-0.93-0.245-2.699 0.011-3.627 0.672-2.505 2.517-4.446 5.077-5.358 0.875-0.309 2.816-0.379 3.893-0.141 3.712 0.827 6.347 4.544 5.835 8.231-0.203 1.486-0.715 2.706-1.621 3.84-0.448 0.573-1.536 1.534-1.728 1.534-0.032 0-0.064-0.363-0.064-0.804v-0.806l0.555-0.661c2.091-2.505 1.941-6.003-0.341-8.299-0.885-0.894-1.909-1.419-3.232-1.661-0.853-0.158-1.035-0.158-1.931-0.011-1.36 0.222-2.414 0.749-3.349 1.675-2.293 2.272-2.443 5.789-0.352 8.295l0.55 0.661v0.811c0 0.448-0.035 0.811-0.079 0.811-0.043 0-0.352-0.213-0.683-0.48zM14.689 16.078c-0.949-0.442-1.461-1.275-1.472-2.361 0-0.976 0.544-1.827 1.483-2.325 0.597-0.314 1.653-0.314 2.251 0.002 0.651 0.338 1.184 0.994 1.387 1.679 0.619 2.103-1.611 3.947-3.627 3.005z"></path>
<path fill="#fff" style="fill: var(--color2, #fff)" d="M18.649 13.831c0 1.469-1.191 2.66-2.66 2.66s-2.66-1.191-2.66-2.66c0-1.469 1.191-2.66 2.66-2.66s2.66 1.191 2.66 2.66z"></path>
<path fill="#fff" style="fill: var(--color2, #fff)" d="M16.243 17.522c0.185 0.025 0.551 0.073 0.891 0.181 0.341 0.107 0.651 0.274 0.892 0.446 0.235 0.171 0.405 0.348 0.512 0.563s0.16 0.471 0.192 0.891c0.021 0.42 0.021 1.003-0.075 2.091-0.096 1.085-0.288 2.675-0.437 3.694-0.149 1.024-0.256 1.472-0.395 1.803-0.139 0.341-0.32 0.565-0.523 0.725s-0.437 0.256-0.661 0.309-0.427 0.053-0.619 0.053-0.373 0-0.619-0.053-0.565-0.149-0.8-0.341c-0.245-0.192-0.405-0.469-0.533-0.832s-0.224-0.8-0.352-1.675-0.299-2.176-0.405-3.168-0.149-1.675-0.158-2.133c-0.011-0.459 0.011-0.686 0.064-0.907 0.053-0.213 0.139-0.416 0.256-0.587s0.271-0.32 0.427-0.437c0.153-0.117 0.309-0.203 0.497-0.269 0.186-0.075 0.409-0.139 0.683-0.192 0.277-0.053 0.597-0.107 0.762-0.128 0.164-0.025 0.164-0.025 0.348 0z"></path>
</symbol>
<symbol id="icon-pp-google" viewBox="0 0 32 32">
<path fill="#0066d9" style="fill: var(--color4, #0066d9)" d="M4 14.909v2.182c0 1.105-0.895 2-2 2s-2-0.895-2-2v-2.182c0-1.105 0.895-2 2-2s2 0.895 2 2z"></path>
<path fill="#4285f4" style="fill: var(--color5, #4285f4)" d="M28.001 14.966c-0-0.017-0.001-0.037-0.001-0.057v-0c0-1.105 0.895-2 2-2s2 0.895 2 2c0 0.019-0 0.038-0.001 0.057h0.001v2.182h-0.001c-0.030 1.078-0.914 1.943-1.999 1.943s-1.969-0.865-1.999-1.943h-0.001v-2.182h0.001z"></path>
<path fill="#ea4335" style="fill: var(--color6, #ea4335)" d="M10.909 21.455v2.182c0 1.105-0.895 2-2 2s-2-0.895-2-2v-2.182c0-1.105 0.895-2 2-2s2 0.895 2 2zM10.909 8.364v7.136h-0.001c-0.024 1.084-0.91 1.955-1.999 1.955s-1.975-0.871-1.999-1.955h-0.001v-7.136c0-1.105 0.895-2 2-2s2 0.895 2 2z"></path>
<path fill="#34a853" style="fill: var(--color7, #34a853)" d="M21.091 10.545c0 1.105 0.895 2 2 2s2-0.895 2-2v-2.182c0-1.105-0.895-2-2-2s-2 0.895-2 2z"></path>
<path fill="#fab908" style="fill: var(--color8, #fab908)" d="M14 4.182c0 1.104 0.895 2 2 2s2-0.896 2-2v-2.182c0-1.105-0.895-2-2-2s-2 0.895-2 2zM14 27.818c0-1.105 0.895-2 2-2s2 0.895 2 2v2.182c0 1.105-0.895 2-2 2s-2-0.895-2-2z"></path>
<path fill="#34a853" style="fill: var(--color7, #34a853)" d="M21.091 16.545c0-1.105 0.895-2 2-2s2 0.895 2 2v7.091c0 1.105-0.895 2-2 2s-2-0.895-2-2z"></path>
<path fill="#fab908" style="fill: var(--color8, #fab908)" d="M18 10.182v11.636c0 1.105-0.895 2-2 2s-2-0.895-2-2v-11.636c0-1.105 0.895-2 2-2s2 0.895 2 2z"></path>
</symbol>
<symbol id="icon-pp-spotify" viewBox="0 0 32 32">
<path fill="#1ed760" style="fill: var(--color1, #1ed760)" d="M16 0c-8.8 0-16 7.2-16 16s7.2 16 16 16 16-7.2 16-16-7.12-16-16-16zM23.361 23.12c-0.32 0.479-0.88 0.64-1.361 0.32-3.76-2.32-8.48-2.801-14.081-1.521-0.557 0.163-1.039-0.239-1.199-0.719-0.16-0.561 0.24-1.040 0.72-1.2 6.080-1.361 11.36-0.8 15.52 1.76 0.56 0.24 0.639 0.879 0.401 1.36zM25.281 18.72c-0.401 0.56-1.121 0.8-1.683 0.4-4.319-2.64-10.879-3.44-15.919-1.84-0.639 0.16-1.36-0.16-1.52-0.8s0.16-1.361 0.8-1.521c5.84-1.759 13.040-0.877 18 2.161 0.481 0.241 0.72 1.040 0.321 1.6zM25.441 14.24c-5.121-3.040-13.681-3.36-18.561-1.839-0.8 0.239-1.6-0.241-1.84-0.961-0.24-0.801 0.24-1.6 0.96-1.841 5.68-1.68 15.040-1.36 20.961 2.161 0.719 0.4 0.959 1.36 0.559 2.080-0.399 0.561-1.36 0.799-2.079 0.4z"></path>
</symbol>
<!--
Carbon svg icons. [https://github.com/carbon-design-system/carbon/tree/master/packages/icons]
IBM - Apache-2.0
-->
<symbol id="icon-pp-rotate-cw" viewBox="0 0 32 32">
<path d="M26 18c0 5.523-4.477 10-10 10s-10-4.477-10-10c0-5.523 4.477-10 10-10v0h4v5l6-6-6-6v5h-4c-6.627 0-12 5.373-12 12s5.373 12 12 12c6.627 0 12-5.373 12-12v0z"></path>
<path d="M19.64 22.13c-0.023 0.001-0.049 0.001-0.076 0.001-0.438 0-0.852-0.1-1.221-0.278l0.017 0.007c-0.363-0.183-0.662-0.444-0.885-0.762l-0.005-0.008c-0.227-0.358-0.392-0.779-0.467-1.23l-0.003-0.020c-0.109-0.466-0.171-1.002-0.171-1.552 0-0.045 0-0.090 0.001-0.135l-0 0.007c-0.001-0.035-0.001-0.075-0.001-0.116 0-0.554 0.062-1.094 0.18-1.612l-0.009 0.049c0.097-0.474 0.278-0.893 0.528-1.262l-0.008 0.012c0.228-0.326 0.527-0.587 0.877-0.764l0.014-0.006c0.352-0.171 0.767-0.271 1.204-0.271 0.027 0 0.053 0 0.080 0.001l-0.004-0c0.055-0.004 0.12-0.007 0.185-0.007 0.809 0 1.526 0.394 1.97 1l0.005 0.007c0.445 0.76 0.707 1.673 0.707 2.648 0 0.099-0.003 0.198-0.008 0.295l0.001-0.014c0.005 0.084 0.007 0.183 0.007 0.282 0 0.975-0.263 1.888-0.721 2.673l0.014-0.025c-0.444 0.659-1.187 1.087-2.030 1.087-0.063 0-0.126-0.002-0.188-0.007l0.008 0zM19.64 20.91c0.031 0.003 0.068 0.005 0.104 0.005 0.39 0 0.728-0.224 0.893-0.55l0.003-0.006c0.191-0.401 0.303-0.872 0.303-1.368 0-0.050-0.001-0.099-0.003-0.149l0 0.007v-1.38c0.002-0.044 0.003-0.095 0.003-0.147 0-0.492-0.112-0.957-0.312-1.372l0.008 0.019c-0.221-0.338-0.597-0.558-1.025-0.558s-0.804 0.22-1.022 0.554l-0.003 0.005c-0.186 0.392-0.294 0.851-0.294 1.336 0 0.058 0.002 0.115 0.005 0.172l-0-0.008v1.38c-0.003 0.048-0.004 0.103-0.004 0.159 0 0.49 0.108 0.954 0.302 1.371l-0.008-0.020c0.166 0.335 0.506 0.561 0.899 0.561 0.053 0 0.106-0.004 0.157-0.012l-0.006 0.001z"></path>
<path d="M12.62 17.42c0.043 0.005 0.093 0.007 0.144 0.007 0.322 0 0.619-0.104 0.86-0.28l-0.004 0.003c0.19-0.155 0.31-0.39 0.31-0.652 0-0.010-0-0.020-0.001-0.029l0 0.001v-0.080c0.001-0.015 0.001-0.033 0.001-0.050 0-0.272-0.116-0.518-0.301-0.689l-0.001-0.001c-0.205-0.169-0.471-0.272-0.761-0.272-0.024 0-0.049 0.001-0.072 0.002l0.003-0c-0.010-0-0.021-0-0.033-0-0.317 0-0.613 0.089-0.865 0.244l0.007-0.004c-0.278 0.174-0.506 0.402-0.675 0.671l-0.005 0.009-0.93-0.83c0.143-0.188 0.287-0.354 0.441-0.511l-0.001 0.001c0.158-0.151 0.335-0.283 0.527-0.393l0.013-0.007c0.202-0.117 0.435-0.21 0.683-0.267l0.017-0.003c0.241-0.064 0.518-0.101 0.803-0.101 0.024 0 0.047 0 0.071 0.001l-0.004-0c0.006-0 0.012-0 0.019-0 0.37 0 0.729 0.051 1.069 0.147l-0.028-0.007c0.314 0.084 0.588 0.222 0.826 0.404l-0.006-0.004c0.223 0.168 0.404 0.378 0.535 0.62l0.005 0.010c0.114 0.234 0.18 0.51 0.18 0.801 0 0.010-0 0.020-0 0.031l0-0.002c0 0.005 0 0.010 0 0.016 0 0.234-0.040 0.459-0.114 0.668l0.004-0.014c-0.082 0.2-0.19 0.372-0.322 0.522l0.002-0.002c-0.133 0.143-0.288 0.263-0.46 0.355l-0.010 0.005c-0.164 0.086-0.355 0.155-0.555 0.197l-0.015 0.003v0.060c0.237 0.044 0.448 0.117 0.643 0.216l-0.013-0.006c0.199 0.098 0.368 0.225 0.509 0.379l0.001 0.001c0.139 0.156 0.254 0.338 0.335 0.537l0.005 0.013c0.076 0.207 0.12 0.446 0.12 0.695 0 0.012-0 0.024-0 0.036l0-0.002c0 0.014 0.001 0.031 0.001 0.047 0 0.318-0.074 0.618-0.206 0.885l0.005-0.012c-0.139 0.288-0.336 0.529-0.576 0.717l-0.004 0.003c-0.253 0.196-0.549 0.35-0.871 0.445l-0.019 0.005c-0.325 0.102-0.699 0.161-1.087 0.161-0.022 0-0.044-0-0.066-0.001l0.003 0c-0.016 0-0.036 0-0.055 0-0.335 0-0.661-0.040-0.973-0.116l0.028 0.006c-0.289-0.076-0.541-0.182-0.775-0.318l0.015 0.008c-0.213-0.131-0.397-0.279-0.559-0.449l-0.001-0.001c-0.156-0.165-0.301-0.344-0.431-0.535l-0.009-0.015 1.070-0.81c0.089 0.16 0.182 0.297 0.285 0.426l-0.005-0.006c0.106 0.128 0.224 0.24 0.355 0.336l0.005 0.004c0.129 0.092 0.278 0.167 0.439 0.217l0.011 0.003c0.158 0.045 0.339 0.070 0.526 0.070 0.015 0 0.031-0 0.046-0.001l-0.002 0c0.033 0.003 0.072 0.004 0.111 0.004 0.336 0 0.646-0.115 0.892-0.307l-0.003 0.002c0.21-0.204 0.341-0.489 0.341-0.805 0-0.016-0-0.032-0.001-0.048l0 0.002v-0.080c0-0.007 0-0.015 0-0.023 0-0.313-0.144-0.592-0.368-0.775l-0.002-0.001c-0.272-0.177-0.605-0.283-0.963-0.283-0.034 0-0.068 0.001-0.102 0.003l0.005-0h-0.76v-1.21z"></path>
</symbol>
<symbol id="icon-pp-rotate-ccw" viewBox="0 0 32 32">
<path d="M4 18c0 6.627 5.373 12 12 12s12-5.373 12-12c0-6.627-5.373-12-12-12v0h-4v-5l-6 6 6 6v-5h4c5.523 0 10 4.477 10 10s-4.477 10-10 10c-5.523 0-10-4.477-10-10v0z"></path>
<path d="M19.63 22.13c-0.021 0.001-0.045 0.001-0.070 0.001-0.44 0-0.856-0.1-1.227-0.278l0.017 0.007c-0.361-0.186-0.66-0.446-0.885-0.762l-0.005-0.008c-0.24-0.357-0.42-0.776-0.516-1.227l-0.004-0.023c-0.108-0.484-0.17-1.039-0.17-1.61 0-0.025 0-0.050 0-0.074l-0 0.004c-0-0.017-0-0.037-0-0.056 0-0.575 0.062-1.136 0.18-1.675l-0.009 0.052c0.102-0.474 0.282-0.892 0.528-1.263l-0.008 0.013c0.23-0.324 0.529-0.584 0.876-0.764l0.014-0.006c0.354-0.171 0.771-0.271 1.21-0.271 0.024 0 0.049 0 0.073 0.001l-0.004-0c0.055-0.004 0.12-0.007 0.185-0.007 0.809 0 1.526 0.394 1.97 1l0.005 0.007c0.445 0.753 0.709 1.66 0.709 2.629 0 0.106-0.003 0.211-0.009 0.316l0.001-0.014c0.006 0.090 0.009 0.195 0.009 0.301 0 0.968-0.263 1.875-0.722 2.653l0.013-0.024c-0.444 0.657-1.186 1.084-2.028 1.084-0.046 0-0.092-0.001-0.138-0.004l0.006 0zM19.63 20.91c0.019 0.001 0.041 0.002 0.064 0.002 0.401 0 0.75-0.22 0.933-0.547l0.003-0.005c0.229-0.439 0.365-0.958 0.37-1.509v-1.381c0.002-0.041 0.003-0.090 0.003-0.139 0-0.493-0.108-0.961-0.301-1.382l0.009 0.021c-0.223-0.338-0.601-0.558-1.030-0.558s-0.807 0.22-1.027 0.553l-0.003 0.005c-0.185 0.4-0.293 0.868-0.293 1.361 0 0.049 0.001 0.097 0.003 0.146l-0-0.007v1.38c-0.002 0.040-0.003 0.087-0.003 0.134 0 0.498 0.108 0.971 0.301 1.397l-0.009-0.021c0.184 0.331 0.531 0.551 0.93 0.551 0.018 0 0.035-0 0.053-0.001l-0.002 0z"></path>
<path d="M10.63 22v-1.18h2v-5.19l-1.86 1-0.55-1.060 2.32-1.3h1.46v6.5h1.78v1.23z"></path>
</symbol>
<symbol id="icon-pp-next" viewBox="0 0 32 32">
<path d="M28 4h2v24h-2z"></path>
<path d="M5 28c-0.552 0-1-0.448-1-1v0-22c0-0.552 0.448-1 1-1 0.184 0 0.357 0.050 0.506 0.137l-0.005-0.003 19 11c0.3 0.176 0.498 0.498 0.498 0.865s-0.198 0.689-0.494 0.862l-0.005 0.003-19 11c-0.144 0.085-0.316 0.135-0.501 0.135v0z"></path>
</symbol>
<symbol id="icon-pp-previous" viewBox="0 0 32 32">
<path d="M27 28c-0.185-0-0.357-0.050-0.506-0.138l0.005 0.003-19-11c-0.3-0.176-0.498-0.498-0.498-0.865s0.198-0.689 0.494-0.862l0.005-0.003 19-11c0.144-0.085 0.317-0.135 0.501-0.135 0.552 0 1 0.447 1 1v22c0 0.552-0.448 1-1 1v0z"></path>
<path d="M2 4h2v24h-2z"></path>
</symbol>
<symbol id="icon-pp-share" viewBox="0 0 30 32">
<path d="M25.143 17.661v4.625c0 2.839-2.304 5.143-5.143 5.143h-14.857c-2.839 0-5.143-2.304-5.143-5.143v-14.857c0-2.839 2.304-5.143 5.143-5.143h4.554c0.304 0 0.571 0.25 0.571 0.571 0 0.286-0.196 0.518-0.464 0.571-0.893 0.304-1.696 0.661-2.375 1.071-0.089 0.036-0.179 0.071-0.286 0.071h-2c-1.571 0-2.857 1.286-2.857 2.857v14.857c0 1.571 1.286 2.857 2.857 2.857h14.857c1.571 0 2.857-1.286 2.857-2.857v-3.821c0-0.214 0.125-0.411 0.321-0.518 0.357-0.161 0.679-0.393 0.964-0.661 0.161-0.161 0.411-0.232 0.625-0.143s0.375 0.286 0.375 0.518zM29.375 8.804l-6.857 6.857c-0.214 0.232-0.5 0.339-0.804 0.339-0.143 0-0.304-0.036-0.446-0.089-0.411-0.179-0.696-0.589-0.696-1.054v-3.429h-2.857c-3.929 0-6.429 0.75-7.821 2.339-1.446 1.661-1.875 4.339-1.321 8.446 0.036 0.25-0.125 0.5-0.357 0.607-0.071 0.018-0.143 0.036-0.214 0.036-0.179 0-0.357-0.089-0.464-0.232-0.125-0.179-2.964-4.196-2.964-7.768 0-4.786 1.5-10.286 13.143-10.286h2.857v-3.429c0-0.464 0.286-0.875 0.696-1.054 0.143-0.054 0.304-0.089 0.446-0.089 0.304 0 0.589 0.125 0.804 0.339l6.857 6.857c0.446 0.446 0.446 1.161 0 1.607z"></path>
</symbol>
<symbol id="icon-pp-play" viewBox="0 0 32 32">
<path d="M7 28c-0.552 0-1-0.448-1-1v0-22c0-0.552 0.448-1 1-1 0.184 0 0.357 0.050 0.506 0.137l-0.005-0.003 19 11c0.3 0.176 0.498 0.498 0.498 0.865s-0.198 0.689-0.494 0.862l-0.005 0.003-19 11c-0.144 0.085-0.316 0.135-0.501 0.135v0z"></path>
</symbol>
</defs>
</svg>
